<svg version="1.1" id="stamp" xmlns="http://www.w3.org/2000/svg" xmlns:xlink="http://www.w3.org/1999/xlink" x="0px" y="0px"
	 viewBox="0 0 594.2 583.1" style="enable-background:new 0 0 594.2 583.1;" xml:space="preserve">
<g id="stamp-group">
	<g id="NYU_W">
		<path class="st0" d="M42.1,414H23.4v-4c4.3-2.2,12.4-6.5,14.5-7.4l0,0c-2.1,0.2-5.3,0.2-8.3,0.2h-6.1v-2.9h18.7v3.8
			c-3.8,2-13,6.6-15.1,7.5l0,0c1.8-0.1,5.4-0.1,8.8-0.1h6.3V414z"/>
		<path class="st0" d="M42.1,392.7h-6.7c-0.2,0-0.4,0-0.6,0.1l-11.5,5.8V395c2.9-1.4,7-3.3,8.9-4.1c-1.8-0.7-6.1-2.8-8.9-4.2v-3.3
			l11.4,5.9c0.2,0.1,0.4,0.1,0.6,0.1h6.7L42.1,392.7z"/>
		<path class="st0" d="M23.4,379.3h11.2c3.9,0,5-1.8,5-3.8c0-2.2-1.3-3.7-5-3.7H23.4v-3.1h11c6.3,0,8,3.2,8,6.9s-1.8,6.9-7.8,6.9
			H23.4V379.3z"/>
		<path class="st0" d="M26.3,356.6v5.2h-2.9v-13.6h2.9v5.2h15.8v3.1H26.3z"/>
		<path class="st0" d="M23.4,343.4h18.7v3.1H23.4V343.4z"/>
		<path class="st0" d="M36.7,338c1.9-0.2,3.2-1.9,3-3.8c0-2.2-1-3.1-2.5-3.1s-2.5,0.8-3.2,3.9c-1.2,4.4-2.9,5.6-5.5,5.6
			c-3.1,0-5.3-2.1-5.3-6c0-4.3,2.6-6,5.3-6.3v3.2c-1.6,0.1-2.7,1.5-2.6,3c0,0.1,0,0.1,0,0.2c0,1.7,0.8,2.6,2.3,2.6s2-0.8,2.8-3.6
			c1.3-4.9,3.3-5.8,5.9-5.8c3.3,0,5.6,2.2,5.6,6.5s-2.4,6.3-5.7,6.7L36.7,338z"/>
		<path class="st0" d="M36.5,311.5c3.4,0.7,5.9,3,5.9,7c0,5.2-4.2,7.7-9.5,7.7c-5.1,0-9.7-2.6-9.7-7.9c-0.2-3.5,2.4-6.6,5.9-6.9v3.1
			c-1.9,0.3-3.2,2-3.1,3.9c0,3.2,3.3,4.5,6.8,4.5c3.3,0,6.9-1.1,6.9-4.6c0-2.5-1.7-3.3-3.1-3.8L36.5,311.5z"/>
		<path class="st0" d="M23.4,309.1V306h7.5v-7.4h-7.5v-3.1h18.7v3.1h-8.3v7.4h8.3v3.1L23.4,309.1z"/>
		<path class="st0" d="M23.4,286.5v-6.8c0-3.5,2.2-5.8,5.7-5.8c3.9,0,5.8,2.6,5.8,5.9v3.5h7.2v3.1H23.4z M32.1,283.3v-3.2
			c0-1.9-0.9-3.1-2.9-3.1c-1.5-0.1-2.8,0.9-2.9,2.4c0,0.2,0,0.4,0,0.6v3.2L32.1,283.3z"/>
		<path class="st0" d="M34.4,268.5h7.8v3.1H23.4v-7.1c0-3.6,2.2-5.5,5.1-5.5c2.5,0,3.9,1.2,4.4,2.6c0.4-1,1.4-2.2,4.7-2.2h0.9
			c1.2,0.1,2.4,0,3.6-0.2v3c-1.4,0.3-2.8,0.4-4.2,0.3h-0.3c-2.3,0-3.3,0.5-3.3,3.3L34.4,268.5z M31.5,268.5v-3.2
			c0-2.2-0.9-3.1-2.7-3.1s-2.6,1-2.6,2.9v3.4H31.5z"/>
		<path class="st0" d="M33.8,245v8.1h5.4v-9l2.9,0.4v11.7H23.4v-11.6h2.9v8.5h4.6V245H33.8z"/>
		<path class="st0" d="M36.7,239.8c1.9-0.2,3.2-1.9,3-3.8c0-2.2-1-3.1-2.5-3.1s-2.5,0.8-3.2,3.9c-1.2,4.4-2.9,5.6-5.5,5.6
			c-3.1,0-5.3-2.1-5.3-6c0-4.3,2.6-6,5.3-6.3v3.2c-1.6,0.1-2.7,1.5-2.6,3c0,0.1,0,0.1,0,0.2c0,1.7,0.8,2.6,2.3,2.6s2-0.8,2.8-3.6
			c1.3-4.9,3.3-5.8,5.9-5.8c3.3,0,5.6,2.2,5.6,6.5s-2.4,6.4-5.7,6.8V239.8z"/>
		<path class="st0" d="M33.8,216.2v8.1h5.4v-9l2.9,0.4v11.6H23.4v-11.5h2.9v8.5h4.6v-8.1H33.8z"/>
		<path class="st0" d="M42.1,213.2H23.4v-4c4.3-2.2,12.4-6.5,14.5-7.4l0,0c-2.1,0.2-5.3,0.2-8.3,0.2h-6.1v-2.9h18.7v3.8
			c-3.8,1.9-13,6.6-15.1,7.6l0,0c1.8-0.1,5.4-0.1,8.8-0.1h6.3V213.2z"/>
		<path class="st0" d="M26.3,192v5.2h-2.9v-13.5h2.9v5.2h15.8v3.1H26.3z"/>
		<path class="st0" d="M36.7,179.7c1.9-0.2,3.2-1.9,3-3.8c0-2.2-1-3.1-2.5-3.1s-2.5,0.8-3.2,3.9c-1.2,4.4-2.9,5.6-5.5,5.6
			c-3.1,0-5.3-2.1-5.3-6c0-4.3,2.6-6,5.3-6.3v3.2c-1.6,0.1-2.7,1.5-2.6,3c0,0,0,0.1,0,0.1c0,1.7,0.8,2.6,2.3,2.6s2-0.8,2.8-3.6
			c1.3-4.9,3.3-5.8,5.9-5.8c3.3,0,5.6,2.2,5.6,6.5s-2.4,6.4-5.7,6.7L36.7,179.7z"/>
	</g>
	<g id="NYU_N">
		<path class="st0" d="M172.8,40.8V22.1h4c2.2,4.3,6.5,12.4,7.4,14.5h0.1c-0.2-2.1-0.2-5.3-0.2-8.3v-6.2h2.9v18.7h-3.8
			c-1.9-3.8-6.6-13-7.6-15.1l0,0c0.1,1.8,0.1,5.4,0.1,8.8v6.3H172.8z"/>
		<path class="st0" d="M194.2,40.8v-6.7c0-0.2,0-0.4-0.1-0.6l-5.8-11.5h3.6c1.4,2.9,3.3,7,4.1,8.9c0.7-1.8,2.8-6.1,4.2-8.9h3.3
			l-6,11.4c-0.1,0.2-0.1,0.4-0.1,0.6v6.7H194.2z"/>
		<path class="st0" d="M207.6,22.1v11.2c0,3.9,1.8,5,3.8,5c2.2,0,3.7-1.3,3.7-5V22.1h3.2v11c0,6.3-3.2,8-6.9,8s-6.9-1.8-6.9-7.8
			V22.1H207.6z"/>
		<path class="st0" d="M230.3,25h-5.2v-2.9h13.6V25h-5.2v15.8h-3.2V25z"/>
		<path class="st0" d="M243.5,22.1v18.7h-3.1V22.1H243.5z"/>
		<path class="st0" d="M248.9,35.4c0.2,1.9,1.9,3.2,3.8,3c2.2,0,3.1-1,3.1-2.5s-0.8-2.4-3.9-3.2c-4.4-1.1-5.6-2.9-5.6-5.5
			c0-3.1,2.1-5.3,6-5.3c4.3,0,6,2.6,6.3,5.3h-3.2c-0.1-1.6-1.5-2.7-3-2.6c0,0-0.1,0-0.1,0c-1.7,0-2.6,0.8-2.6,2.3s0.8,2,3.6,2.8
			c4.8,1.3,5.8,3.3,5.8,5.9c0,3.3-2.2,5.6-6.5,5.6s-6.4-2.4-6.7-5.7H248.9z"/>
		<path class="st0" d="M275.4,35.2c-0.7,3.4-3,5.9-7,5.9c-5.2,0-7.7-4.2-7.7-9.5c0-5.1,2.6-9.7,7.9-9.7c3.5-0.2,6.6,2.4,6.9,5.9
			h-3.1c-0.3-1.9-2-3.2-3.9-3.1c-3.2,0-4.5,3.3-4.5,6.8c0,3.3,1.2,6.9,4.6,6.9c2.4,0,3.3-1.7,3.8-3.1H275.4z"/>
		<path class="st0" d="M277.8,22.1h3.1v7.5h7.4v-7.5h3.1v18.7h-3.1v-8.3h-7.4v8.3h-3.1L277.8,22.1z"/>
		<path class="st0" d="M300.4,22.1h6.8c3.5,0,5.8,2.2,5.8,5.7c0,3.9-2.6,5.8-5.9,5.8h-3.5v7.2h-3.2V22.1z M303.6,30.7h3.1
			c1.9,0,3.1-0.9,3.1-2.9c0.1-1.5-0.9-2.8-2.4-2.9c-0.2,0-0.4,0-0.6,0h-3.2L303.6,30.7z"/>
		<path class="st0" d="M318.3,33v7.8h-3.1V22.1h7.1c3.6,0,5.5,2.2,5.5,5.1c0,2.5-1.2,3.9-2.6,4.4c1,0.4,2.2,1.4,2.2,4.7v0.9
			c-0.1,1.2,0,2.4,0.2,3.6h-3c-0.3-1.4-0.4-2.8-0.3-4.2v-0.3c0-2.3-0.5-3.3-3.4-3.3L318.3,33z M318.3,30.2h3.2
			c2.2,0,3.1-0.9,3.1-2.7s-1-2.6-2.9-2.6h-3.4L318.3,30.2z"/>
		<path class="st0" d="M341.9,32.5h-8.1v5.4h9l-0.4,2.9h-11.7V22.1h11.6V25h-8.5v4.6h8.1L341.9,32.5z"/>
		<path class="st0" d="M347.1,35.4c0.2,1.9,1.9,3.2,3.8,3c2.2,0,3.1-1,3.1-2.5s-0.8-2.4-3.9-3.2c-4.4-1.1-5.6-2.9-5.6-5.5
			c0-3.1,2.1-5.3,6-5.3c4.3,0,6,2.6,6.3,5.3h-3.2c-0.1-1.6-1.5-2.7-3-2.6c0,0-0.1,0-0.1,0c-1.7,0-2.6,0.8-2.6,2.3s0.8,2,3.6,2.8
			c4.9,1.3,5.9,3.3,5.9,5.9c0,3.3-2.2,5.6-6.5,5.6s-6.4-2.4-6.7-5.7L347.1,35.4z"/>
		<path class="st0" d="M370.6,32.5h-8.1v5.4h9l-0.4,2.9h-11.7V22.1H371V25h-8.5v4.6h8.1L370.6,32.5z"/>
		<path class="st0" d="M373.6,40.8V22.1h4c2.2,4.3,6.5,12.4,7.4,14.5l0,0c-0.2-2.1-0.2-5.3-0.2-8.3v-6.2h2.9v18.7H384
			c-2-3.8-6.6-13-7.5-15.1l0,0c0.1,1.8,0.1,5.4,0.1,8.8v6.3H373.6z"/>
		<path class="st0" d="M394.8,25h-5.2v-2.9h13.6V25H398v15.8h-3.2V25z"/>
		<path class="st0" d="M407.1,35.4c0.2,1.9,1.9,3.2,3.8,3c2.2,0,3.1-1,3.1-2.5s-0.8-2.4-3.9-3.2c-4.4-1.1-5.6-2.9-5.6-5.5
			c0-3.1,2.1-5.3,6-5.3c4.3,0,6,2.6,6.3,5.3h-3.2c-0.1-1.6-1.5-2.7-3-2.6c-0.1,0-0.1,0-0.2,0c-1.7,0-2.6,0.8-2.6,2.3s0.8,2,3.6,2.8
			c4.9,1.3,5.8,3.3,5.8,5.9c0,3.3-2.2,5.6-6.5,5.6s-6.3-2.4-6.7-5.7L407.1,35.4z"/>
	</g>
	<g id="Grad_S">
		<path class="st0" d="M219.1,568.2h-2.3c-0.2-0.7-0.2-1.4-0.3-2.1c-0.9,1.4-2.4,2.4-5,2.4c-4.9,0-7.5-4.1-7.5-9.4
			c0-5.6,2.9-9.9,8.1-9.9c4.2,0,6.7,2.6,7.1,5.8H216c-0.4-1.9-2.1-3.2-4-3c-3.6,0-4.8,3.3-4.8,6.9s1.3,6.8,4.8,6.8
			c3.3,0,4-2.5,4-4.7v-0.2h-4v-2.9h7.1L219.1,568.2z"/>
		<path class="st0" d="M225.4,560.5v7.8h-3.1v-18.7h7.1c3.6,0,5.5,2.2,5.5,5.1c0,2.5-1.2,3.9-2.6,4.4c1,0.4,2.2,1.4,2.2,4.7v0.9
			c-0.1,1.2,0,2.4,0.2,3.6h-3c-0.3-1.4-0.4-2.8-0.3-4.2v-0.3c0-2.3-0.5-3.3-3.4-3.3L225.4,560.5z M225.4,557.6h3.2
			c2.2,0,3.1-0.9,3.1-2.7s-1-2.6-2.9-2.6h-3.4L225.4,557.6z"/>
		<path class="st0" d="M240.8,563.5l-1.5,4.8h-3.1l5.8-18.7h3.9l6,18.7h-3.3l-1.5-4.8H240.8z M246.5,560.6c-1.3-4.3-2.1-6.8-2.5-8.4
			l0,0c-0.4,1.8-1.3,4.8-2.4,8.4H246.5z"/>
		<path class="st0" d="M253.7,549.5h6.4c4.8,0,8,3.6,8,9.1s-3.1,9.6-8.1,9.6h-6.3L253.7,549.5z M256.9,565.3h3c3.5,0,5-2.8,5-6.7
			c0-3.3-1.5-6.3-5-6.3h-3L256.9,565.3z"/>
		<path class="st0" d="M273.9,549.5v11.2c0,3.9,1.8,5,3.8,5c2.2,0,3.7-1.3,3.7-5v-11.2h3.2v11c0,6.3-3.2,8-6.9,8s-6.9-1.8-6.9-7.8
			v-11.2H273.9z"/>
		<path class="st0" d="M290.4,563.5l-1.5,4.8h-3.1l5.8-18.7h3.9l6,18.7h-3.3l-1.5-4.8H290.4z M296,560.6c-1.3-4.3-2.1-6.8-2.5-8.4
			l0,0c-0.4,1.8-1.3,4.8-2.4,8.4H296z"/>
		<path class="st0" d="M304.8,552.4h-5.2v-2.9h13.6v2.9H308v15.8h-3.2V552.4z"/>
		<path class="st0" d="M326.1,559.9h-8.1v5.4h9l-0.4,2.9h-11.7v-18.7h11.6v2.9h-8.5v4.6h8.1V559.9z"/>
		<path class="st0" d="M334.5,549.5h11.4v2.9h-8.3v5.1h7.8v2.9h-7.8v7.8h-3.1V549.5z"/>
		<path class="st0" d="M351.2,549.5v18.7H348v-18.7H351.2z"/>
		<path class="st0" d="M354.8,549.5h3.1v15.8h8.5l-0.4,2.9h-11.3V549.5z"/>
		<path class="st0" d="M382.2,560.9c0-3.3,0-6.9,0.1-8.9h-0.1c-0.8,3.5-2.8,10.4-4.5,16.3H375c-1.3-5-3.4-12.8-4.1-16.3h-0.1
			c0.1,2.2,0.2,6.1,0.2,9.4v7h-3v-18.8h4.7c1.5,5.2,3.3,11.8,3.8,14.5l0,0c0.4-2.2,2.6-9.4,4.1-14.5h4.5v18.7h-3L382.2,560.9z"/>
	</g>
	<g id="NYU_E">
		<path class="st0" d="M555.3,175.5h18.7v4c-4.3,2.2-12.5,6.6-14.5,7.4l0,0c2.1-0.2,5.3-0.2,8.3-0.2h6.2v2.9h-18.7v-3.8
			c3.8-2,13-6.6,15.1-7.6l0,0c-1.8,0.1-5.4,0.1-8.8,0.1h-6.3V175.5z"/>
		<path class="st0" d="M555.3,196.9h6.7c0.2,0,0.4,0,0.6-0.1l11.5-5.8v3.6c-2.9,1.4-7,3.3-8.9,4.1c1.8,0.7,6.1,2.8,8.9,4.2v3.3
			l-11.4-5.9c-0.2-0.1-0.4-0.1-0.6-0.1h-6.7L555.3,196.9z"/>
		<path class="st0" d="M574.1,210.3h-11.2c-3.9,0-5,1.8-5,3.8c0,2.2,1.3,3.7,5,3.7h11.2v3.2H563c-6.3,0-8-3.2-8-6.9s1.8-6.9,7.8-6.9
			H574L574.1,210.3z"/>
		<path class="st0" d="M571.2,233v-5.2h2.9v13.6h-2.9v-5.2h-15.8V233H571.2z"/>
		<path class="st0" d="M574.1,246.2h-18.7v-3.1h18.7V246.2z"/>
		<path class="st0" d="M560.7,251.6c-1.9,0.2-3.2,1.9-3,3.8c0,2.2,1,3.1,2.5,3.1s2.4-0.8,3.2-3.9c1.2-4.4,2.9-5.6,5.5-5.6
			c3.1,0,5.3,2.1,5.3,6c0,4.3-2.6,6-5.3,6.3v-3.2c1.6-0.1,2.7-1.5,2.6-3c0,0,0-0.1,0-0.1c0-1.7-0.8-2.6-2.3-2.6s-2,0.8-2.8,3.6
			c-1.3,4.9-3.3,5.9-5.9,5.9c-3.3,0-5.6-2.2-5.6-6.5s2.4-6.4,5.7-6.7L560.7,251.6z"/>
		<path class="st0" d="M561,278.1c-3.4-0.7-5.9-3-5.9-7c0-5.2,4.2-7.8,9.5-7.8c5.1,0,9.7,2.6,9.7,7.9c0.2,3.5-2.4,6.6-5.9,6.9V275
			c1.9-0.3,3.2-2,3.1-3.9c0-3.2-3.3-4.5-6.8-4.5c-3.3,0-6.9,1.1-6.9,4.6c0,2.4,1.7,3.3,3.1,3.8V278.1z"/>
		<path class="st0" d="M574.1,280.5v3.1h-7.5v7.4h7.5v3.1h-18.7V291h8.3v-7.4h-8.3v-3.1H574.1z"/>
		<path class="st0" d="M574.1,303.1v6.8c0,3.5-2.2,5.8-5.7,5.8c-3.9,0-5.8-2.6-5.8-5.9v-3.5h-7.2v-3.2H574.1z M565.4,306.3v3.1
			c0,1.9,0.9,3.1,2.9,3.1c1.5,0.1,2.8-0.9,2.9-2.4c0-0.2,0-0.4,0-0.6v-3.2L565.4,306.3z"/>
		<path class="st0" d="M563.1,321h-7.8v-3.1h18.7v7.1c0,3.6-2.2,5.5-5.1,5.5c-2.5,0-3.9-1.2-4.4-2.6c-0.4,1-1.4,2.2-4.7,2.2H559
			c-1.2-0.1-2.4,0-3.6,0.2v-3c1.4-0.3,2.8-0.4,4.1-0.3h0.3c2.3,0,3.3-0.5,3.3-3.4L563.1,321z M565.9,321v3.2c0,2.2,0.9,3.1,2.7,3.1
			s2.6-1,2.6-2.9V321H565.9z"/>
		<path class="st0" d="M563.7,344.6v-8.1h-5.4v9l-2.9-0.4v-11.7h18.7v11.6h-2.9v-8.5h-4.6v8.1H563.7z"/>
		<path class="st0" d="M560.7,349.8c-1.9,0.2-3.2,1.9-3,3.8c0,2.2,1,3.1,2.5,3.1s2.4-0.8,3.2-3.9c1.2-4.4,2.9-5.6,5.5-5.6
			c3.1,0,5.3,2.1,5.3,6c0,4.3-2.6,6-5.3,6.3v-3.2c1.6-0.1,2.7-1.5,2.6-3c0,0,0-0.1,0-0.1c0-1.7-0.8-2.6-2.3-2.6s-2,0.8-2.8,3.6
			c-1.3,4.9-3.3,5.9-5.9,5.9c-3.3,0-5.6-2.2-5.6-6.5s2.4-6.4,5.7-6.7L560.7,349.8z"/>
		<path class="st0" d="M563.7,373.3v-8.1h-5.4v9l-2.9-0.4v-11.7h18.7v11.6h-2.9v-8.5h-4.6v8.1L563.7,373.3z"/>
		<path class="st0" d="M555.3,376.3h18.7v4c-4.3,2.2-12.5,6.5-14.5,7.4l0,0c2.1-0.2,5.3-0.2,8.3-0.2h6.2v2.9h-18.7v-3.8
			c3.8-2,13-6.6,15.1-7.5l0,0c-1.8,0.1-5.4,0.1-8.8,0.1h-6.3V376.3z"/>
		<path class="st0" d="M571.2,397.5v-5.2h2.9v13.6h-2.9v-5.2h-15.8v-3.2H571.2z"/>
		<path class="st0" d="M560.7,409.8c-1.9,0.2-3.2,1.9-3,3.8c0,2.2,1,3.1,2.5,3.1s2.4-0.8,3.2-3.9c1.2-4.4,2.9-5.6,5.5-5.6
			c3.1,0,5.3,2.1,5.3,6c0,4.3-2.6,6-5.3,6.3v-3.2c1.6-0.1,2.7-1.5,2.6-3c0,0,0-0.1,0-0.1c0-1.7-0.8-2.6-2.3-2.6s-2,0.8-2.8,3.6
			c-1.3,4.9-3.3,5.8-5.9,5.8c-3.3,0-5.6-2.2-5.6-6.5s2.4-6.4,5.7-6.7L560.7,409.8z"/>
	</g>
	<g id="THE">
		<path class="st0" d="M192.4,91.9h-31.9V71.8h87.3v20.1h-32v64.9h-23.4V91.9z"/>
		<path class="st0" d="M249.7,71.8h23.2v30.9h49.7V71.8h23.2v84.8h-23.2v-33.4h-49.7v33.4h-23.2V71.8z"/>
		<path class="st0" d="M431,71.4v19.4h-55.4v12.6h54.1v19.5h-54.1v14H432v19.8h-79.4V71.4H431z"/>
	</g>
	<g id="_x32_ND">
		<path class="st0" d="M148.9,247.8v-9.4c0-2.1,0.1-4,0.2-5.7c0.2-2,0.5-4.1,1-6.1c0.5-2.2,1.2-4.3,2.2-6.3c1.1-2.2,2.5-4.2,4.1-6.1
			c1.9-2.2,4-4.2,6.4-5.8c2.9-2,6-3.6,9.2-5c4.1-1.7,8.3-3.1,12.6-4.1l17-4c4.5-1,7.4-2,8.8-3c1.3-0.9,2-2.4,2-3.9
			c0-1.2-0.4-2.3-1.1-3.1c-0.8-0.8-2.6-1.6-5.4-2.2c-3.9-0.7-7.8-1.1-11.8-1c-3.6-0.1-7.3,0.3-10.8,1.2c-2.9,0.8-4.9,1.9-6.2,3.3
			c-1,1.1-1.9,2.3-2.5,3.7c-0.4,1.2-0.7,2.4-0.7,3.6h-23.8v-0.9c0-2.3,0.2-4.6,0.6-6.9c0.6-2.7,1.7-5.3,3.1-7.7
			c1.7-3,3.9-5.6,6.7-7.7c2.8-2.1,6.8-4,12.1-5.5c6.1-1.6,12.4-2.4,18.8-2.3h3.9c5.8-0.1,11.7,0.4,17.4,1.4c4.1,0.7,8.1,2,11.9,3.8
			c2.8,1.4,5.2,3.3,7.2,5.7c1.7,2.1,3,4.4,3.7,7c0.7,2.5,1,5.2,1,7.8v0.2c0.1,2.9-0.3,5.9-1.1,8.7c-0.8,2.5-2.2,4.8-4,6.8
			c-2.4,2.5-5.3,4.4-8.6,5.6c-4.7,1.8-9.5,3.1-14.4,4l-20,3.8c-12.8,2.7-19.2,6.1-19.2,10.4h46.1v-10.8h22.4v30.5H148.9z"/>
		<path class="st0" d="M269.6,162.8l47.4,53.5v-53.5h22.9v85H317l-50.4-56.3v56.4h-22.9v-85L269.6,162.8z"/>
		<path class="st0" d="M396,162.5c6.3-0.1,12.6,0.5,18.8,1.6c4.9,0.8,9.6,2.4,14,4.6c3.5,1.8,6.7,4.1,9.6,6.8
			c2.6,2.4,4.7,5.2,6.1,8.4c1.3,3,2.3,6.1,3,9.2c0.7,3.2,1,6.4,1,9.7v3.4c0,3.8-0.4,7.7-1.2,11.4c-1,3.9-2.6,7.6-4.8,11
			c-2.4,3.8-5.5,7.1-9.1,9.7c-3.7,2.7-8.8,4.9-15.2,6.6c-7.2,1.9-14.6,2.7-22.1,2.6h-49.3v-85.2H396z M370,227.2h24.2
			c19.9,0,29.9-7.3,29.9-22v-0.7c0-14.6-10-21.9-29.9-21.9h-24.1L370,227.2z"/>
	</g>
	<g id="YEAR">
		<path class="st0" d="M149.2,305.2L110,253.8h28.4l22.7,30.9l23.1-30.9h25.9l-38.1,51.4v32.5h-22.9V305.2z"/>
		<path class="st0" d="M289,253.5v19.4h-55.4v12.6h54.1v19.5h-54.1v14H290v19.8h-79.4v-85.2H289z"/>
		<path class="st0" d="M396.2,338.6h-22.8l-6.4-15.4h-48.4l-6.4,15.4h-22.8l36.1-84.1H360L396.2,338.6z M326.4,304.3h32.9
			l-12.8-30.9h-7.2L326.4,304.3L326.4,304.3z"/>
		<path class="st0" d="M480.7,315.7v23h-21.1v-14.9c0-5.2-1.1-8.9-3.2-11.2c-2.1-2.3-5.7-3.5-10.8-3.5h-27.5v29.7H397v-83.6h54.2
			c19.4,0,29.2,7.2,29.2,21.7v1.4c0,8.8-4.2,15-12.5,18.3c3.7,1.3,6.9,3.6,9.2,6.8C479.5,306.5,480.7,310.6,480.7,315.7z
			 M458.5,282.2c0.1-2.1-0.7-4.2-2.1-5.8c-1.4-1.5-3.5-2.2-6.4-2.2h-31.9v16.4H450c2.9,0,5-0.8,6.4-2.2
			C457.9,286.6,458.6,284.5,458.5,282.2L458.5,282.2z"/>
	</g>
	<g id="SHOW">
		<path class="st0" d="M121.9,431.3c-6.5,0.1-13-0.6-19.3-2.2c-5.5-1.4-9.8-3.2-12.8-5.3c-2.9-1.9-5.3-4.5-7.1-7.5
			c-1.6-2.4-2.7-5.1-3.4-7.9c-0.5-2.5-0.8-5-0.8-7.5v-1.2h24.2c0.5,9,5.8,13.5,19.9,13.5h5.4c3.2,0.1,6.5-0.2,9.7-0.7
			c2.3-0.3,4.6-1,6.7-2.1c2.3-1.2,3.7-3.6,3.5-6.2c0.1-1.5-0.3-3.1-1.2-4.3c-0.8-1.1-2.7-2-5.6-2.8c-4.2-1-8.4-1.4-12.7-1.4
			l-7.3-0.2l-5.4-0.1c-24.1-0.8-36.2-9.1-36.2-24.9v-1c0-2.6,0.3-5.1,0.9-7.6c0.7-2.6,1.9-4.9,3.6-7c1.9-2.4,4.3-4.4,7-5.9
			c3.7-1.9,7.6-3.2,11.7-3.9c5.6-1.1,11.4-1.6,17.2-1.5h6.9c6-0.1,12,0.5,17.9,1.6c4.3,0.8,8.5,2.1,12.4,4.1
			c2.9,1.5,5.5,3.6,7.6,6.2c1.8,2.1,3.1,4.6,4,7.3c0.7,2.5,1.1,5.1,1.1,7.7v1.1h-24.1c-0.1-0.8-0.3-1.6-0.6-2.4
			c-1-2.3-2.8-4.1-5-5.2c-2-0.9-4.1-1.5-6.2-1.8c-2.8-0.6-5.7-0.8-8.5-0.8H122c-4.1-0.1-8.1,0.3-12.1,1.2c-3,0.8-4.8,1.6-5.4,2.5
			c-0.7,1.1-1,2.3-0.9,3.6c-0.1,1.3,0.3,2.5,1,3.5c0.7,0.9,2.3,1.8,5,2.5c3.6,0.9,7.4,1.3,11.1,1.2l5.5,0.1l7,0.1
			c13.8,0.3,23.8,2.5,30,6.5c6.2,4,9.2,10.3,9.2,18.8v1.6c0,2.8-0.3,5.6-0.9,8.4c-0.7,2.7-2,5.3-3.7,7.6c-2,2.7-4.5,4.9-7.4,6.5
			c-4,2.1-8.2,3.5-12.7,4.3c-6.2,1.2-12.5,1.7-18.8,1.7L121.9,431.3z"/>
		<path class="st0" d="M176.3,344.9h23.2v30.9h49.7v-30.9h23.2v84.8h-23.2v-33.4h-49.7v33.4h-23.2V344.9z"/>
		<path class="st0" d="M331.7,343.3c5.9-0.1,11.8,0.5,17.5,1.5c4.6,0.8,9,2.2,13.2,4.1c3.4,1.6,6.5,3.7,9.3,6.2
			c2.4,2.1,4.5,4.6,6.2,7.3c1.5,2.5,2.8,5.2,3.6,8c0.8,2.5,1.4,5.1,1.8,7.8c0.3,2.4,0.4,4.8,0.4,7.2v3.4c0,2.4-0.1,4.7-0.4,7.1
			c-0.4,2.7-1,5.3-1.8,7.8c-0.9,2.8-2.1,5.6-3.6,8.1c-1.7,2.8-3.8,5.3-6.2,7.4c-2.8,2.5-5.9,4.7-9.3,6.3c-4.2,1.9-8.7,3.3-13.2,4.2
			c-5.8,1.1-11.7,1.7-17.6,1.6h-3.1c-5.9,0.1-11.8-0.5-17.6-1.6c-4.6-0.8-9-2.2-13.3-4.2c-3.4-1.6-6.5-3.8-9.3-6.3
			c-2.4-2.2-4.5-4.7-6.3-7.4c-1.5-2.5-2.7-5.3-3.6-8.1c-0.8-2.6-1.4-5.2-1.7-7.8c-0.3-2.4-0.4-4.7-0.4-7.1v-3.4
			c0-2.4,0.1-4.8,0.4-7.1c0.4-2.6,0.9-5.2,1.7-7.8c1.7-6,5.1-11.3,9.8-15.4c2.8-2.5,5.9-4.6,9.3-6.2c4.3-1.9,8.7-3.3,13.3-4.1
			c5.8-1.1,11.7-1.6,17.6-1.5L331.7,343.3z M359.5,386.2c0-2-0.2-4.1-0.7-6c-0.6-2.1-1.5-4.1-2.7-6c-1.4-2.1-3.1-3.9-5.2-5.2
			c-2.7-1.7-5.6-2.9-8.7-3.6c-3.4-0.8-6.8-1.3-10.2-1.4c-0.8,0-2.6,0-3.1,0c-18.9,0.4-28.3,7.8-28.3,22.3v1.4
			c-0.1,5.5,1.9,10.9,5.5,15.1c2,2.4,5.1,4.4,9.3,5.8c4.5,1.4,9.2,2.2,13.9,2.1c0.5,0,1.7,0,2.4,0c4.4-0.1,8.8-0.8,13-2.1
			c4.2-1.4,7.3-3.3,9.3-5.7c1.9-2.1,3.4-4.6,4.3-7.3c0.8-2.5,1.3-5.1,1.2-7.8L359.5,386.2z"/>
		<path class="st0" d="M408.3,428.7l-30.1-83.9h25l18.9,57.8l13.3-43.8H465l14.6,42.1l18.5-56.1h22.5L491,428.7h-23.2L452.2,379
			h-3.9l-14.8,49.8L408.3,428.7z"/>
	</g>
	<g id="CASE">
		<path class="st0" d="M158.5,522.2c-5.5,0-10.9-0.5-16.3-1.6c-4.3-0.9-8.5-2.3-12.4-4.2c-3.3-1.7-6.3-3.8-9-6.3
			c-2.4-2.2-4.4-4.7-6.1-7.5c-1.5-2.6-2.7-5.3-3.7-8.1c-0.9-2.6-1.5-5.2-1.9-7.9c-0.3-2.4-0.4-4.7-0.4-7.1v-3.3
			c0-3.5,0.3-7,0.9-10.4c0.8-3.8,2.2-7.6,4.1-11c2-4,4.8-7.5,8.2-10.4c3.4-2.9,8.3-5.3,14.6-7.3c7.1-2.1,14.6-3.1,22-3h4.1
			c7.3-0.1,14.6,0.8,21.7,2.6c6.3,1.7,11.1,3.8,14.5,6.3c3.3,2.3,6.1,5.2,8.4,8.6c1.9,2.6,3.3,5.6,4.2,8.7c0.6,2.4,1,4.9,1,7.4v1.3
			h-24.7c-0.2-0.8-0.4-1.7-0.8-2.5c-0.6-1.2-1.4-2.4-2.3-3.5c-1.2-1.6-2.8-3-4.5-4c-2.4-1.3-5.1-2.3-7.8-2.9
			c-3.9-0.9-7.9-1.4-11.8-1.3c-4.6-0.1-9.2,0.5-13.6,1.9c-3.3,0.9-6.2,2.7-8.5,5.2c-1.8,2-3.1,4.4-4,7c-0.8,2.6-1.2,5.3-1.2,8v1.4
			c0,2.7,0.4,5.4,1.4,8c1,2.7,2.4,5.2,4.2,7.4c2.3,2.7,5.3,4.7,8.6,5.8c4.3,1.5,8.8,2.3,13.4,2.2c15.3,0,24.3-4.9,27-14.8
			c0.1-0.1,0.1-0.2,0.1-0.4h24.7v1.3c0,6-1.9,11.9-5.5,16.7c-2.3,3.4-5.2,6.4-8.5,8.8c-3.4,2.6-8.3,4.7-14.5,6.4
			c-7,1.9-14.2,2.7-21.4,2.6L158.5,522.2z"/>
		<path class="st0" d="M313.1,520.7h-22.8l-6.3-15.4h-48.5l-6.4,15.4h-22.8l36.1-84.1H277L313.1,520.7z M243.3,486.3h32.9
			l-12.8-30.9h-7.2L243.3,486.3L243.3,486.3z"/>
		<path class="st0" d="M351.8,522.3c-6.5,0.1-13-0.6-19.3-2.2c-5.5-1.4-9.8-3.2-12.8-5.2c-2.9-2-5.3-4.5-7.1-7.5
			c-1.6-2.4-2.7-5.1-3.4-7.9c-0.5-2.5-0.8-5-0.8-7.5v-1.3h24.2c0.5,9,5.8,13.5,19.9,13.5h5.4c3.2,0.1,6.5-0.2,9.7-0.7
			c2.3-0.3,4.6-1,6.7-2.1c2.3-1.2,3.7-3.6,3.5-6.2c0.1-1.5-0.3-3.1-1.2-4.3c-0.8-1.1-2.7-2-5.6-2.8c-4.2-0.9-8.4-1.4-12.7-1.4
			l-7.3-0.2l-5.5-0.1c-24.1-0.8-36.2-9.1-36.2-24.9v-1c0-2.6,0.3-5.1,0.9-7.6c0.7-2.6,1.9-4.9,3.6-7c1.9-2.4,4.3-4.4,7-5.9
			c3.7-1.9,7.6-3.2,11.7-4c5.6-1.1,11.4-1.6,17.1-1.5h6.9c6-0.1,12,0.5,18,1.6c4.3,0.8,8.5,2.2,12.4,4.1c2.9,1.5,5.5,3.6,7.6,6.2
			c1.8,2.1,3.1,4.6,4,7.2c0.7,2.5,1.1,5.1,1.1,7.7v1.1h-24.1c-0.1-0.8-0.3-1.6-0.5-2.3c-0.4-0.9-1-1.8-1.6-2.6
			c-0.9-1.1-2.1-2-3.4-2.6c-2-0.9-4.1-1.5-6.2-1.8c-2.8-0.6-5.7-0.8-8.5-0.8h-3.5c-4.1-0.1-8.1,0.3-12.1,1.2c-3,0.8-4.8,1.6-5.4,2.5
			c-0.7,1.1-1.1,2.3-1,3.6c-0.1,1.3,0.3,2.5,1,3.5c0.7,0.9,2.3,1.8,5,2.5c3.6,0.9,7.4,1.3,11.1,1.3l5.5,0.1l7,0.1
			c13.8,0.3,23.8,2.5,30,6.5c6.2,4,9.3,10.3,9.2,18.8v1.6c0,2.8-0.3,5.6-0.9,8.4c-0.7,2.7-2,5.3-3.7,7.6c-2,2.7-4.5,4.9-7.4,6.5
			c-4,2.1-8.2,3.5-12.7,4.3c-6.2,1.2-12.5,1.7-18.8,1.7L351.8,522.3z"/>
		<path class="st0" d="M484.7,435.5v19.4h-55.4v12.6h54.1v19.5h-54.1v14h56.4v19.8h-79.3v-85.3H484.7z"/>
	</g>
	<path id="Frame" class="st0" d="M544.4,542.2H53V47.3h491.4V542.2z M57,538.2h483.4V51.3H57V538.2z"/>
</g>
</svg>
