<svg version="1.1" id="NYU-logo" xmlns="http://www.w3.org/2000/svg" xmlns:xlink="http://www.w3.org/1999/xlink" x="0px" y="0px"
	 viewBox="0 0 1844.6 364.6" style="enable-background:new 0 0 1844.6 364.6;" xml:space="preserve">
<path class="st0" d="M1773.2,175.8h-48v-67.9l13.9-0.7v53.2h34.1L1773.2,175.8z"/>
<path class="st0" d="M36,45.9h288.1v285.5H36V45.9z M169.4,191.4c-7.8-23.9-1.1-42.5,15.9-56.8c9.1-7.7,11-15.1,7.2-25.4
	c-2.1-5.5-3.7-11.2-5.5-17c-11.8,15.6-23.9,29.9-34.1,45.5C138.8,159.2,144.7,177.9,169.4,191.4z M238.3,137.8
	c-10.6,7-21,14.1-31.6,20.7c-13.3,8.4-21.9,19.6-24.2,35.4C215.3,198.4,238.7,174.2,238.3,137.8z M176.4,192.2
	c5.6-23.5,19.2-35.4,37-44c3.7-1.8,7.7-7.6,7.6-11.5c-0.1-8.9-2.7-17.8-4.3-26.8c-10.6,11-19.6,20.5-28.8,29.8
	C174.5,153.6,167.6,169,176.4,192.2z M141.6,115.2c-6.5,12.8-13.8,24.3-18.5,36.8c-8.8,23.2,10.1,44.8,35.3,40.2
	c-17.9-13.5-24.3-30.6-14-50.5C149.5,131.7,147.1,124.4,141.6,115.2L141.6,115.2z M170.5,299.5h4.8c3.4-26.4,6.8-52.8,10.2-79.6
	h-24.2C164.5,247,167.5,273.3,170.5,299.5z M195.8,202H154c-3.7,13,5.4,12.5,12.1,10.9C175.5,210.5,190.3,221.1,195.8,202z"/>
<path class="st0" d="M510.6,200.8v-93.9h34.7v160.2c-18.1,3.8-32.4,2.1-44-15.6c-16.4-24.9-36-47.7-54.2-71.4
	c-2.8-3.6-5.8-6.9-10.9-13.1v100.4h-35.1V106c9.2,0,18.1-0.9,26.8,0.4c4.3,0.6,9,4.4,11.8,8c20.3,25.8,40.2,52,60.3,78.1
	c2.5,3.3,5.3,6.4,8,9.6L510.6,200.8z"/>
<path class="st0" d="M742.8,106.8h36.1c0,18.6,0,36.4,0,54.2c0,14.5-0.4,29,0.4,43.5c1.1,21.7,14.5,33.7,35.7,33.4
	c20.6-0.3,33.3-12.3,33.9-33.7c0.7-27.7,0.3-55.4,0.4-83.1c0-4.6,0-9.1,0-14.4h34.9c0.5,1.7,1.3,3.2,1.3,4.8c0,32,0.7,64-0.5,95.9
	c-1.5,40.7-28.1,63.7-71.3,63.7c-43.4,0-69.2-22.7-70.6-64C742,173.9,742.8,140.7,742.8,106.8z"/>
<path class="st0" d="M565.1,107.3c1.1-0.4,2.2-0.7,3.4-1c37-2.5,37-2.5,56,29c6.7,11.2,13.5,22.5,21.3,35.5
	c11.4-18.6,22.5-35,31.9-52.4c5.5-10.3,12.3-13.8,23.4-12.6c7.6,0.8,15.3,0.2,24.9,0.2c-2.5,4.6-4.1,7.9-6.1,11
	c-16.6,25.8-33.6,51.4-49.7,77.6c-3.8,6.5-5.9,13.7-6.3,21.2c-0.9,16.9-0.3,33.9-0.3,51.9h-36.2c0-17.4,0.5-34.8-0.3-52
	c-0.3-7-2.3-13.9-5.9-20C603.2,166.2,584.3,137.4,565.1,107.3z"/>
<path class="st0" d="M1551.2,246.5l14,21.7c-11.1,3.9-17.8,1-23-8.2c-3.7-6.5-6.9-15.6-18.6-10.8c-0.4,6.1-0.8,12.4-1.2,19.8
	l-13.6,1.1v-67.7c11.1,0,22.5-0.5,33.8,0.1c10.1,0.6,18.3,5,21,15.6c2.6,9.9,0.1,18.5-8.5,24.8
	C1553.9,243.9,1552.7,245.1,1551.2,246.5z M1523.9,214.3v23c9.2-3.1,16.9-5.2,24.1-8.4c0.9-0.4,0.3-8.3-1-8.8
	C1539.9,217.6,1532.4,216.3,1523.9,214.3L1523.9,214.3z"/>
<path class="st0" d="M1072.6,270.6c-21,0-36.2-14.7-36-35c0.2-20.1,15.7-34.7,36.7-34.4c20.3,0.2,35.4,14.9,35.6,34.3
	C1109,255.4,1093.3,270.6,1072.6,270.6z M1072.3,214.8c-11,0.1-19.8,9.3-20,20.8c-0.1,11.9,9.3,21.6,20.7,21.4
	c11-0.1,20-9.4,20.1-20.7C1093.2,224.5,1083.6,214.7,1072.3,214.8z"/>
<path class="st0" d="M1676.6,106.6c20.7-0.1,36.6,15,36.4,34.8s-16,34.7-36.8,34.6c-20.2-0.1-35.5-14.7-35.7-34.1
	C1640.2,122,1655.9,106.7,1676.6,106.6z M1696.8,141.2c-0.1-12.1-9.3-21.4-20.9-21c-11.2,0.4-19.4,9.3-19.3,21.1
	c0.1,12.2,9.2,21.4,20.8,21C1688.6,162,1696.9,153,1696.8,141.2z"/>
<path class="st0" d="M1631.9,140.8c0.2,20.2-15,35.1-35.9,35.1s-36.5-15-36.4-34.9c0.2-19.2,15.6-34.2,35.6-34.5
	C1616.3,106.2,1631.8,120.6,1631.9,140.8z M1616.2,141.2c-0.1-12-9.5-21.4-21-20.9c-11,0.4-19.8,10-19.7,21.2
	c0.2,11.7,10.1,21.4,21.3,21S1616.3,152.8,1616.2,141.2L1616.2,141.2z"/>
<path class="st0" d="M1393.6,256.4v12.7h-50.5V202c15.2,0,30-0.2,44.9,0.3c2,0.1,5.8,4.6,5.4,6.1c-0.8,2.7-3.9,6.3-6.4,6.7
	c-6.3,1-12.8,0.7-19.2,0.3c-9.8-0.6-12.2,3.6-8.6,13.5h29.5c0.3,4.8,0.5,8.3,0.8,13h-30.2c-3.6,10.3-1.7,15.2,9.5,14.5
	C1376.8,256,1384.9,256.4,1393.6,256.4z"/>
<path class="st0" d="M1303.5,148.5h-26.6c-0.4,8.8-0.8,17.1-1.2,26H1262V108l13.7-0.7c0.4,9.3,0.9,17.6,1.3,26.4h26.5
	c0.4-8.1,0.8-16.3,1.2-25.8l13.5-0.7v67.1h-13.4C1304.4,165.8,1304,157.5,1303.5,148.5z"/>
<path class="st0" d="M1491.2,174.2v-66.1l13.7-0.9c0.5,9.1,1,17.4,1.5,26.4h26.5c0.4-8.6,0.8-16.9,1.3-25.6h13.6v66.2l-13.7,1.1
	v-26.6h-27.8v25.4H1491.2z"/>
<path class="st0" d="M1326.9,269.3h-13.4c-0.5-8.7-0.9-17-1.4-26h-25.8c-0.4,8.1-0.9,16.4-1.4,25.7l-13.5,1v-67.3h13.4
	c0.4,8.5,0.8,16.4,1.3,25.3h25.8c0.4-7.9,0.8-16.1,1.3-25.2l13.6-0.8L1326.9,269.3z"/>
<path class="st0" d="M1498.7,268.4c-10.1,2.8-16.1,2-19-7.4c-3.3-10.9-12.9-5.1-19.7-6.1c-5.7-0.8-12.2-1.8-14.3,6.6
	c-2.4,9.5-9.1,9.5-18.1,6.7c9-21,17.5-41.6,26.7-62c3.1-6.8,14.3-7.1,17.4-0.4C1480.9,226.3,1489.5,247,1498.7,268.4z M1462.8,220.2
	c-3.2,8-5.6,13.9-8.2,20.4h16.6C1468.3,233.6,1466,227.9,1462.8,220.2L1462.8,220.2z"/>
<path class="st0" d="M966.2,45.8v286.8C959.6,325,958.5,56.8,966.2,45.8z"/>
<path class="st0" d="M1406.9,114.7c-2.8,9.1-7.2,12.5-16,7.3c-3-1.6-6.5-2.3-9.9-1.8c-2.4,0.3-5.9,2.7-6.4,4.8
	c-0.4,1.8,2.1,5.6,4.2,6.5c5.8,2.6,12.2,3.8,18.2,6.1c8.4,3.2,13.3,9.2,12.8,18.6c-0.6,9.6-5.9,16-15.1,18.4
	c-14.2,3.6-26.9,0.8-38.3-9.6l7.2-8.7c7.8,2.3,14.9,5.1,22.3,6.1c2.6,0.4,5.8-3.6,8.7-5.6c-2.2-2.3-3.9-5.4-6.6-6.6
	c-5.8-2.6-13.2-2.8-17.9-6.5c-5-4-10.6-11-10.5-16.7s5.1-14,10.4-17C1382.6,103,1395.4,106.4,1406.9,114.7z"/>
<path class="st0" d="M1684,210.5l-7,9.1c-6.5-1.9-12.1-4.3-17.9-4.9c-2.6-0.3-5.5,2.9-8.3,4.5c1.8,2.5,3.2,6,5.6,7.2
	c5.4,2.5,11.4,3.6,17,5.7c8.5,3.1,13.1,9,12.8,18.4c-0.4,9.9-5.6,16-14.8,18.5c-13.8,3.9-26,0.4-38.4-8.6l6.9-9.8
	c7.7,2.4,14.4,5.3,21.3,6.4c2.8,0.4,6.2-3.1,9.3-4.8c-2.2-2.6-3.9-6.3-6.7-7.6c-5.3-2.6-12.4-2.5-16.7-6c-5.1-4.1-11.2-10.9-11-16.4
	c0.2-6.2,5.5-14.2,11-18C1656.8,197.6,1670.8,200.8,1684,210.5z"/>
<path class="st0" d="M1135.6,215.9v13.4h31.4c0.4,4.9,0.7,8.4,1.1,13.7h-32.3c-0.5,9.3-0.8,17.1-1.3,26.1l-13.5,0.7V202
	c15.4,0,30.3-0.2,45.1,0.3c2.1,0.1,5.9,4.2,5.6,6c-0.4,2.8-3.5,7.1-5.7,7.3C1156.3,216.4,1146.5,215.9,1135.6,215.9z"/>
<path class="st0" d="M1127.2,165l7-8.8c7.8,2.3,14.8,5.1,22.2,6.2c2.7,0.4,5.9-3.5,8.9-5.4c-2.1-2.3-3.8-5.5-6.5-6.7
	c-5.4-2.4-12.5-2.4-16.8-5.9c-5.3-4.4-12-11.5-11.6-17.1c0.4-6.4,6.4-15,12.4-18c11.8-6,24-2.4,35.3,6l-6.5,10.2
	c-4.2-1.5-8.1-4-12-4c-4.8,0-9.6,2.1-14.5,3.2c3.4,3,6.6,6.5,10.4,8.8c3.6,2.1,8.1,2.6,12.1,4.1c9,3.4,13.9,9.9,12.9,19.7
	c-1,9.6-6.9,15.6-16.1,17.6C1150.7,177.8,1138.2,175.1,1127.2,165z"/>
<path class="st0" d="M1242.3,154.8l8.3,9.2c-15.1,15.2-37.7,16.1-51.8,2.5c-13.5-13.1-13.8-36-0.7-49.5
	c13.5-13.9,36.8-13.9,51.9,0.4l-7.6,9.5c-12.4-6.5-25.4-12.2-35.1,3.5c-5.5,8.9-4.3,18.4,3,25.9
	C1220.5,166.6,1231.2,162.6,1242.3,154.8z"/>
<path class="st0" d="M1479.9,117l-6.7,8c-9.3-1.3-17.3-3.4-25.3-3.3c-3.4,0-7.7,3.8-10,7c-6.5,9-5.7,18.5,1.2,27s16.3,8.4,33.6-0.6
	c2.3,2.3,4.9,5,7.4,7.6c-12.8,15.6-34.4,17.8-49.4,5.9s-17.2-35.3-4.5-50.2S1462.1,102.5,1479.9,117z"/>
<path class="st0" d="M1035.1,107.9h55.1v13.2l-19.4,1.2v51.9h-15.4v-51.7l-20.3-1.5L1035.1,107.9z"/>
<path class="st0" d="M1225.3,216.8l-20.5-1.3v-12.7h55.5c0.2,4,0.4,7.7,0.6,12.6l-20.5,1.4v52.4h-15.1V216.8z"/>
<path class="st0" d="M1607.3,269.3h-15.2v-52.3l-19.9-1.8v-12.5h54.6v12.7l-19.4,1.3V269.3z"/>
<path class="st0" d="M1115.6,174.5H1102V108h13.6L1115.6,174.5z"/>
</svg>
